ffmpeg version n7.1.1 Copyright (c) 2000-2025 the FFmpeg developers
  built with gcc 15.1.1 (GCC) 20250425
  configuration: --prefix=/usr --disable-debug --disable-static --disable-stripping --enable-amf --enable-avisynth --enable-cuda-llvm --enable-lto --enable-fontconfig --enable-frei0r --enable-gmp --enable-gnutls --enable-gpl --enable-ladspa --enable-libaom --enable-libass --enable-libbluray --enable-libbs2b --enable-libdav1d --enable-libdrm --enable-libdvdnav --enable-libdvdread --enable-libfreetype --enable-libfribidi --enable-libglslang --enable-libgsm --enable-libharfbuzz --enable-libiec61883 --enable-libjack --enable-libjxl --enable-libmodplug --enable-libmp3lame --enable-libopencore_amrnb --enable-libopencore_amrwb --enable-libopenjpeg --enable-libopenmpt --enable-libopus --enable-libplacebo --enable-libpulse --enable-librav1e --enable-librsvg --enable-librubberband --enable-libsnappy --enable-libsoxr --enable-libspeex --enable-libsrt --enable-libssh --enable-libsvtav1 --enable-libtheora --enable-libv4l2 --enable-libvidstab --enable-libvmaf --enable-libvorbis --enable-libvpl --enable-libvpx --enable-libwebp --enable-libx264 --enable-libx265 --enable-libxcb --enable-libxml2 --enable-libxvid --enable-libzimg --enable-libzmq --enable-nvdec --enable-nvenc --enable-opencl --enable-opengl --enable-shared --enable-vapoursynth --enable-version3 --enable-vulkan
  libavutil      59. 39.100 / 59. 39.100
  libavcodec     61. 19.101 / 61. 19.101
  libavformat    61.  7.100 / 61.  7.100
  libavdevice    61.  3.100 / 61.  3.100
  libavfilter    10.  4.100 / 10.  4.100
  libswscale      8.  3.100 /  8.  3.100
  libswresample   5.  3.100 /  5.  3.100
  libpostproc    58.  3.100 / 58.  3.100
Input #0, avi, from 'media/GoneNutty.avi':
  Metadata:
    software        : Nandub v1.0rc2
  Duration: 00:04:38.84, start: 0.000000, bitrate: 1345 kb/s
  Stream #0:0: Video: mpeg4 (DX50 / 0x30355844), yuv420p, 640x352 [SAR 1:1 DAR 20:11], 1147 kb/s, 25 fps, 25 tbr, 25 tbn
  Stream #0:1: Audio: ac3 ([0] [0][0] / 0x2000), 48000 Hz, stereo, fltp, 192 kb/s
[Parsed_scale_0 @ 0x558208c0f4c0] [Eval @ 0x7ffeb2be93a0] Undefined constant or missing '(' in 'overscale'
[Parsed_scale_0 @ 0x558208c0f4c0] Unable to parse option value "overscale"
Error applying option 'force_original_aspect_ratio' to filter 'scale': Invalid argument
Error opening output file /home/josh/.media-manager/thumbnails/GoneNutty.avi.jpg.
Error opening output files: Invalid argument
